<svg xmlns="http://www.w3.org/2000/svg" xmlns:xlink="http://www.w3.org/1999/xlink" viewBox="0 0 711 800" width="711" height="800">
  <rect width="100%" height="100%" fill="#ffffff"/>
  <defs>
    <g id="x0a0"><radialGradient id="x0g0" cx=".5" cy=".5" fx=".33" fy=".33" r=".66"><stop offset="0%" stop-color="#c3c3c3"/><stop offset="100%" stop-color="#888888"/></radialGradient><circle cx="0" cy="0" r="48.0" fill="url(#x0g0)" stroke="#000000" stroke-width="8.5"/></g>
    <g id="x0a1"><radialGradient id="x0g1" cx=".5" cy=".5" fx=".33" fy=".33" r=".66"><stop offset="0%" stop-color="#c3c3c3"/><stop offset="100%" stop-color="#888888"/></radialGradient><circle cx="0" cy="0" r="48.0" fill="url(#x0g1)" stroke="#000000" stroke-width="8.5"/></g>
    <g id="x0a2"><radialGradient id="x0g2" cx=".5" cy=".5" fx=".33" fy=".33" r=".66"><stop offset="0%" stop-color="#c3c3c3"/><stop offset="100%" stop-color="#888888"/></radialGradient><circle cx="0" cy="0" r="48.0" fill="url(#x0g2)" stroke="#000000" stroke-width="8.5"/></g>
    <g id="x0a3"><radialGradient id="x0g3" cx=".5" cy=".5" fx=".33" fy=".33" r=".66"><stop offset="0%" stop-color="#c3c3c3"/><stop offset="100%" stop-color="#888888"/></radialGradient><circle cx="0" cy="0" r="48.0" fill="url(#x0g3)" stroke="#000000" stroke-width="8.5"/></g>
    <g id="x0a4"><radialGradient id="x0g4" cx=".5" cy=".5" fx=".33" fy=".33" r=".66"><stop offset="0%" stop-color="#c3c3c3"/><stop offset="100%" stop-color="#888888"/></radialGradient><circle cx="0" cy="0" r="48.0" fill="url(#x0g4)" stroke="#000000" stroke-width="8.5"/></g>
    <g id="x0a5"><radialGradient id="x0g5" cx=".5" cy=".5" fx=".33" fy=".33" r=".66"><stop offset="0%" stop-color="#c3c3c3"/><stop offset="100%" stop-color="#888888"/></radialGradient><circle cx="0" cy="0" r="48.0" fill="url(#x0g5)" stroke="#000000" stroke-width="8.5"/></g>
  </defs>
  <use x="355.5" y="586.8" xlink:href="#x0a0"/>
  <line x1="311.8" y1="576.3" x2="224.7" y2="526.0" stroke="#000000" stroke-width="14.8" stroke-linecap="round"/>
  <line x1="324.5" y1="554.3" x2="237.4" y2="504.0" stroke="#000000" stroke-width="14.8" stroke-linecap="round" stroke-dasharray="14.8,29.6"/>
  <line x1="386.5" y1="554.3" x2="473.6" y2="504.0" stroke="#000000" stroke-width="14.8" stroke-linecap="round" stroke-dasharray="14.8,29.6"/>
  <line x1="399.2" y1="576.3" x2="486.3" y2="526.0" stroke="#000000" stroke-width="14.8" stroke-linecap="round"/>
  <use x="193.6" y="493.4" xlink:href="#x0a1"/>
  <line x1="180.9" y1="450.2" x2="180.9" y2="349.8" stroke="#000000" stroke-width="14.8" stroke-linecap="round"/>
  <line x1="206.3" y1="450.2" x2="206.3" y2="349.8" stroke="#000000" stroke-width="14.8" stroke-linecap="round" stroke-dasharray="14.8,29.6"/>
  <use x="193.6" y="306.6" xlink:href="#x0a2"/>
  <line x1="224.7" y1="274.0" x2="311.8" y2="223.7" stroke="#000000" stroke-width="14.8" stroke-linecap="round"/>
  <line x1="237.4" y1="296.0" x2="324.5" y2="245.7" stroke="#000000" stroke-width="14.8" stroke-linecap="round" stroke-dasharray="14.8,29.6"/>
  <use x="355.5" y="213.2" xlink:href="#x0a3"/>
  <line x1="399.2" y1="223.7" x2="486.3" y2="274.0" stroke="#000000" stroke-width="14.8" stroke-linecap="round"/>
  <line x1="386.5" y1="245.7" x2="473.6" y2="296.0" stroke="#000000" stroke-width="14.8" stroke-linecap="round" stroke-dasharray="14.8,29.6"/>
  <use x="517.4" y="306.6" xlink:href="#x0a4"/>
  <line x1="530.1" y1="349.8" x2="530.1" y2="450.2" stroke="#000000" stroke-width="14.8" stroke-linecap="round"/>
  <line x1="504.7" y1="349.8" x2="504.7" y2="450.2" stroke="#000000" stroke-width="14.8" stroke-linecap="round" stroke-dasharray="14.8,29.6"/>
  <use x="517.4" y="493.4" xlink:href="#x0a5"/>
</svg>